<svg width="179" height="57" viewBox="0 0 179 57" fill="none" xmlns="http://www.w3.org/2000/svg">
<path d="M10.44 14.84V25.12C11.3733 24.1067 12.3733 23.4 13.44 23C14.5333 22.6 15.9067 22.4 17.56 22.4C19.24 22.4 20.6 22.9333 21.64 24C22.7067 25.04 23.24 26.4667 23.24 28.28V38.56C23.24 39.28 23.4133 39.8533 23.76 40.28C24.1067 40.68 24.64 40.88 25.36 40.88C26.08 40.88 26.9067 40.4933 27.84 39.72L28.56 40.68C26.4267 42.6267 24.2933 43.6 22.16 43.6C18.88 43.6 17.24 41.64 17.24 37.72V27.44C17.24 26.6133 16.9867 25.9733 16.48 25.52C15.9733 25.0667 15.2667 24.84 14.36 24.84C13.4533 24.84 12.5733 25.2133 11.72 25.96C10.8667 26.7067 10.44 27.68 10.44 28.88V43H4.44V14.32C2.97333 14.6933 1.85333 15.3467 1.08 16.28L0 15.04C0.773333 14.24 1.74667 13.6 2.92 13.12C4.12 12.64 5.29333 12.4 6.44 12.4C7.61333 12.4 8.57333 12.64 9.32 13.12C10.0667 13.5733 10.44 14.1467 10.44 14.84ZM38.7334 24.84V38.56C38.7334 39.3867 38.9868 40.0267 39.4934 40.48C40.0001 40.9333 40.7068 41.16 41.6134 41.16C42.5201 41.16 43.4001 40.7867 44.2534 40.04C45.1068 39.2933 45.5334 38.32 45.5334 37.12V23H51.5334V38.56C51.5334 39.28 51.7068 39.8533 52.0534 40.28C52.4001 40.68 52.9334 40.88 53.6534 40.88C54.3734 40.88 55.2001 40.4933 56.1334 39.72L56.8534 40.68C54.7201 42.6267 52.5468 43.6 50.3334 43.6C48.1201 43.6 46.6534 42.6133 45.9334 40.64C44.8934 41.7333 43.8134 42.5067 42.6934 42.96C41.6001 43.3867 40.1868 43.6 38.4534 43.6C36.7468 43.6 35.3601 43.08 34.2934 42.04C33.2534 40.9733 32.7334 39.5333 32.7334 37.72V24.32C31.2668 24.6933 30.1468 25.3467 29.3734 26.28L28.2934 25.04C29.0668 24.24 30.0401 23.6 31.2134 23.12C32.4134 22.64 33.5868 22.4 34.7334 22.4C35.9068 22.4 36.8668 22.64 37.6134 23.12C38.3601 23.5733 38.7334 24.1467 38.7334 24.84ZM35.1334 18.36C34.5468 17.7733 34.2534 17.0533 34.2534 16.2C34.2534 15.3467 34.5468 14.6267 35.1334 14.04C35.7201 13.4533 36.4401 13.16 37.2934 13.16C38.1468 13.16 38.8668 13.4533 39.4534 14.04C40.0401 14.6267 40.3334 15.3467 40.3334 16.2C40.3334 17.0533 40.0401 17.7733 39.4534 18.36C38.8668 18.9467 38.1468 19.24 37.2934 19.24C36.4401 19.24 35.7201 18.9467 35.1334 18.36ZM44.3334 18.36C43.7468 17.7733 43.4534 17.0533 43.4534 16.2C43.4534 15.3467 43.7468 14.6267 44.3334 14.04C44.9201 13.4533 45.6401 13.16 46.4934 13.16C47.3468 13.16 48.0668 13.4533 48.6534 14.04C49.2401 14.6267 49.5334 15.3467 49.5334 16.2C49.5334 17.0533 49.2401 17.7733 48.6534 18.36C48.0668 18.9467 47.3468 19.24 46.4934 19.24C45.6401 19.24 44.9201 18.9467 44.3334 18.36ZM61.0147 23C63.2014 23 65.1747 23.6667 66.9347 25C67.948 24.04 68.988 23.3733 70.0547 23C71.1214 22.6 72.4814 22.4 74.1347 22.4C75.8147 22.4 77.1747 22.9333 78.2147 24C79.2814 25.04 79.8147 26.4667 79.8147 28.28V38.56C79.8147 39.28 79.988 39.8533 80.3347 40.28C80.6814 40.68 81.2147 40.88 81.9347 40.88C82.6547 40.88 83.4814 40.4933 84.4147 39.72L85.1347 40.68C83.0014 42.6267 80.868 43.6 78.7347 43.6C75.4547 43.6 73.8147 41.64 73.8147 37.72V27.44C73.8147 26.6133 73.5614 25.9733 73.0547 25.52C72.548 25.0667 71.8414 24.84 70.9347 24.84C70.0547 24.84 69.1747 25.2 68.2947 25.92C67.4414 26.64 67.0147 27.5733 67.0147 28.72V43H61.0147V24.6C59.8147 24.6 58.748 24.8 57.8147 25.2L57.2547 23.72C58.4014 23.24 59.6547 23 61.0147 23ZM107.616 23V38.56C107.616 39.28 107.789 39.8533 108.136 40.28C108.483 40.68 109.016 40.88 109.736 40.88C110.456 40.88 111.283 40.4933 112.216 39.72L112.936 40.68C110.803 42.6267 108.669 43.6 106.536 43.6C104.003 43.6 102.443 42.4133 101.856 40.04C100.469 42.4133 98.4293 43.6 95.7359 43.6C92.6693 43.6 90.3359 42.6133 88.7359 40.64C87.1359 38.64 86.3359 36.1067 86.3359 33.04C86.3359 29.9467 87.1893 27.4 88.8959 25.4C90.6293 23.4 93.0426 22.4 96.1359 22.4C98.5093 22.4 100.336 23.3467 101.616 25.24V23H107.616ZM93.6559 26.92C92.9093 28.4133 92.5359 30.44 92.5359 33C92.5359 35.56 92.9093 37.5867 93.6559 39.08C94.4026 40.5733 95.5359 41.32 97.0559 41.32C98.6026 41.32 99.7759 40.5733 100.576 39.08C101.403 37.56 101.816 35.5333 101.816 33C101.816 30.4667 101.403 28.4533 100.576 26.96C99.7759 25.44 98.6026 24.68 97.0559 24.68C95.5359 24.68 94.4026 25.4267 93.6559 26.92ZM91.4559 18.36C90.8693 17.7733 90.5759 17.0533 90.5759 16.2C90.5759 15.3467 90.8693 14.6267 91.4559 14.04C92.0426 13.4533 92.7626 13.16 93.6159 13.16C94.4693 13.16 95.1893 13.4533 95.7759 14.04C96.3626 14.6267 96.6559 15.3467 96.6559 16.2C96.6559 17.0533 96.3626 17.7733 95.7759 18.36C95.1893 18.9467 94.4693 19.24 93.6159 19.24C92.7626 19.24 92.0426 18.9467 91.4559 18.36ZM100.656 18.36C100.069 17.7733 99.7759 17.0533 99.7759 16.2C99.7759 15.3467 100.069 14.6267 100.656 14.04C101.243 13.4533 101.963 13.16 102.816 13.16C103.669 13.16 104.389 13.4533 104.976 14.04C105.563 14.6267 105.856 15.3467 105.856 16.2C105.856 17.0533 105.563 17.7733 104.976 18.36C104.389 18.9467 103.669 19.24 102.816 19.24C101.963 19.24 101.243 18.9467 100.656 18.36ZM127.868 22.4C128.668 22.4 129.068 23.16 129.068 24.68V38.56C129.068 39.28 129.242 39.8533 129.588 40.28C129.935 40.68 130.468 40.88 131.188 40.88C131.908 40.88 132.735 40.4933 133.668 39.72L134.388 40.68C132.255 42.6267 130.122 43.6 127.988 43.6C124.708 43.6 123.068 41.64 123.068 37.72V26.48C121.815 26.9867 120.295 27.3333 118.508 27.52C118.295 29.9733 117.588 32.4267 116.388 34.88L114.748 34.4C115.495 32.5067 115.895 30.2533 115.948 27.64C114.935 27.64 114.108 27.3467 113.468 26.76C112.855 26.1733 112.548 25.4533 112.548 24.6C112.548 23.72 112.842 22.9867 113.428 22.4C114.042 21.7867 114.775 21.48 115.628 21.48C116.508 21.48 117.242 21.7867 117.828 22.4C118.415 23.0133 118.708 23.8 118.708 24.76H119.468C121.575 24.76 123.815 24.1733 126.188 23C126.962 22.6 127.522 22.4 127.868 22.4ZM133.594 15.04C134.367 14.24 135.34 13.6 136.514 13.12C137.714 12.64 138.887 12.4 140.034 12.4C141.207 12.4 142.167 12.64 142.914 13.12C143.66 13.5733 144.034 14.1467 144.034 14.84V38.56C144.034 39.28 144.207 39.8533 144.554 40.28C144.9 40.68 145.434 40.88 146.154 40.88C146.874 40.88 147.7 40.4933 148.634 39.72L149.354 40.68C147.22 42.6267 145.087 43.6 142.954 43.6C139.674 43.6 138.034 41.64 138.034 37.72V14.32C136.567 14.6933 135.447 15.3467 134.674 16.28L133.594 15.04ZM154.715 18.48C154.101 17.84 153.795 17.08 153.795 16.2C153.795 15.32 154.101 14.5733 154.715 13.96C155.355 13.32 156.115 13 156.995 13C157.875 13 158.621 13.32 159.235 13.96C159.875 14.5733 160.195 15.32 160.195 16.2C160.195 17.08 159.875 17.84 159.235 18.48C158.621 19.0933 157.875 19.4 156.995 19.4C156.115 19.4 155.355 19.0933 154.715 18.48ZM156.235 22.4C158.741 22.4 159.995 23.48 159.995 25.64V38.56C159.995 39.28 160.168 39.8533 160.515 40.28C160.861 40.68 161.395 40.88 162.115 40.88C162.835 40.88 163.661 40.4933 164.595 39.72L165.315 40.68C163.181 42.6267 161.048 43.6 158.915 43.6C155.635 43.6 153.995 41.64 153.995 37.72V24.32C152.528 24.6933 151.408 25.3467 150.635 26.28L149.555 25.04C150.328 24.24 151.301 23.6 152.475 23.12C153.675 22.64 154.928 22.4 156.235 22.4Z" fill="white"/>
<path d="M172 12.25C174.899 12.25 177.25 9.8995 177.25 7C177.25 4.10051 174.899 1.75 172 1.75C169.101 1.75 166.75 4.10051 166.75 7C166.75 9.8995 169.101 12.25 172 12.25Z" stroke="#F8F8F8" stroke-linecap="round" stroke-linejoin="round"/>
<path d="M170.688 7.4375H172.438C172.786 7.4375 173.119 7.29922 173.366 7.05308C173.612 6.80694 173.75 6.4731 173.75 6.125C173.75 5.7769 173.612 5.44306 173.366 5.19692C173.119 4.95078 172.786 4.8125 172.438 4.8125H170.688V9.1875" stroke="#F8F8F8" stroke-linecap="round" stroke-linejoin="round"/>
<path d="M172.525 7.43164L173.75 9.18711" stroke="#F8F8F8" stroke-linecap="round" stroke-linejoin="round"/>
</svg>
