<svg width="127" height="48" viewBox="0 0 127 48" fill="none" xmlns="http://www.w3.org/2000/svg">
<path d="M19.04 19.52V36.88H20.72V38H13.16V36.88H14.84V30.356H7.84V36.88H9.52V38H1.96V36.88H3.64V19.52H1.96V18.4H9.52V19.52H7.84V29.096H14.84V19.52H13.16V18.4H20.72V19.52H19.04ZM30.34 25.288V34.892C30.34 35.4707 30.5173 35.9187 30.872 36.236C31.2266 36.5533 31.7213 36.712 32.356 36.712C32.9906 36.712 33.6066 36.4507 34.204 35.928C34.8013 35.4053 35.1 34.724 35.1 33.884V24H39.3V34.892C39.3 35.396 39.4213 35.7973 39.664 36.096C39.9066 36.376 40.28 36.516 40.784 36.516C41.288 36.516 41.8666 36.2453 42.52 35.704L43.024 36.376C41.5306 37.7387 40.0093 38.42 38.46 38.42C36.9106 38.42 35.884 37.7293 35.38 36.348C34.652 37.1133 33.896 37.6547 33.112 37.972C32.3466 38.2707 31.3573 38.42 30.144 38.42C28.9493 38.42 27.9786 38.056 27.232 37.328C26.504 36.5813 26.14 35.5733 26.14 34.304V24.924C25.1133 25.1853 24.3293 25.6427 23.788 26.296L23.032 25.428C23.5733 24.868 24.2546 24.42 25.076 24.084C25.916 23.748 26.7373 23.58 27.54 23.58C28.3613 23.58 29.0333 23.748 29.556 24.084C30.0786 24.4013 30.34 24.8027 30.34 25.288ZM27.82 20.752C27.4093 20.3413 27.204 19.8373 27.204 19.24C27.204 18.6427 27.4093 18.1387 27.82 17.728C28.2306 17.3173 28.7346 17.112 29.332 17.112C29.9293 17.112 30.4333 17.3173 30.844 17.728C31.2546 18.1387 31.46 18.6427 31.46 19.24C31.46 19.8373 31.2546 20.3413 30.844 20.752C30.4333 21.1627 29.9293 21.368 29.332 21.368C28.7346 21.368 28.2306 21.1627 27.82 20.752ZM34.26 20.752C33.8493 20.3413 33.644 19.8373 33.644 19.24C33.644 18.6427 33.8493 18.1387 34.26 17.728C34.6706 17.3173 35.1746 17.112 35.772 17.112C36.3693 17.112 36.8733 17.3173 37.284 17.728C37.6946 18.1387 37.9 18.6427 37.9 19.24C37.9 19.8373 37.6946 20.3413 37.284 20.752C36.8733 21.1627 36.3693 21.368 35.772 21.368C35.1746 21.368 34.6706 21.1627 34.26 20.752ZM45.9368 24C47.4675 24 48.8488 24.4667 50.0808 25.4C50.7902 24.728 51.5182 24.2613 52.2648 24C53.0115 23.72 53.9635 23.58 55.1208 23.58C56.2968 23.58 57.2488 23.9533 57.9768 24.7C58.7235 25.428 59.0968 26.4267 59.0968 27.696V34.892C59.0968 35.396 59.2182 35.7973 59.4608 36.096C59.7035 36.376 60.0768 36.516 60.5808 36.516C61.0848 36.516 61.6635 36.2453 62.3168 35.704L62.8208 36.376C61.3275 37.7387 59.8342 38.42 58.3408 38.42C56.0448 38.42 54.8968 37.048 54.8968 34.304V27.108C54.8968 26.5293 54.7195 26.0813 54.3648 25.764C54.0102 25.4467 53.5155 25.288 52.8808 25.288C52.2648 25.288 51.6488 25.54 51.0328 26.044C50.4355 26.548 50.1368 27.2013 50.1368 28.004V38H45.9368V25.12C45.0968 25.12 44.3502 25.26 43.6968 25.54L43.3048 24.504C44.1075 24.168 44.9848 24 45.9368 24ZM78.5577 24V34.892C78.5577 35.396 78.6791 35.7973 78.9217 36.096C79.1644 36.376 79.5377 36.516 80.0417 36.516C80.5457 36.516 81.1244 36.2453 81.7777 35.704L82.2817 36.376C80.7884 37.7387 79.2951 38.42 77.8017 38.42C76.0284 38.42 74.9364 37.5893 74.5257 35.928C73.5551 37.5893 72.1271 38.42 70.2417 38.42C68.0951 38.42 66.4617 37.7293 65.3417 36.348C64.2217 34.948 63.6617 33.1747 63.6617 31.028C63.6617 28.8627 64.2591 27.08 65.4537 25.68C66.6671 24.28 68.3564 23.58 70.5217 23.58C72.1831 23.58 73.4617 24.2427 74.3577 25.568V24H78.5577ZM68.7857 26.744C68.2631 27.7893 68.0017 29.208 68.0017 31C68.0017 32.792 68.2631 34.2107 68.7857 35.256C69.3084 36.3013 70.1017 36.824 71.1657 36.824C72.2484 36.824 73.0697 36.3013 73.6297 35.256C74.2084 34.192 74.4977 32.7733 74.4977 31C74.4977 29.2267 74.2084 27.8173 73.6297 26.772C73.0697 25.708 72.2484 25.176 71.1657 25.176C70.1017 25.176 69.3084 25.6987 68.7857 26.744ZM67.2457 20.752C66.8351 20.3413 66.6297 19.8373 66.6297 19.24C66.6297 18.6427 66.8351 18.1387 67.2457 17.728C67.6564 17.3173 68.1604 17.112 68.7577 17.112C69.3551 17.112 69.8591 17.3173 70.2697 17.728C70.6804 18.1387 70.8857 18.6427 70.8857 19.24C70.8857 19.8373 70.6804 20.3413 70.2697 20.752C69.8591 21.1627 69.3551 21.368 68.7577 21.368C68.1604 21.368 67.6564 21.1627 67.2457 20.752ZM73.6857 20.752C73.2751 20.3413 73.0697 19.8373 73.0697 19.24C73.0697 18.6427 73.2751 18.1387 73.6857 17.728C74.0964 17.3173 74.6004 17.112 75.1977 17.112C75.7951 17.112 76.2991 17.3173 76.7097 17.728C77.1204 18.1387 77.3257 18.6427 77.3257 19.24C77.3257 19.8373 77.1204 20.3413 76.7097 20.752C76.2991 21.1627 75.7951 21.368 75.1977 21.368C74.6004 21.368 74.0964 21.1627 73.6857 20.752ZM92.7345 23.58C93.2945 23.58 93.5745 24.112 93.5745 25.176V34.892C93.5745 35.396 93.6958 35.7973 93.9385 36.096C94.1811 36.376 94.5545 36.516 95.0585 36.516C95.5625 36.516 96.1411 36.2453 96.7945 35.704L97.2985 36.376C95.8051 37.7387 94.3118 38.42 92.8185 38.42C90.5225 38.42 89.3745 37.048 89.3745 34.304V26.436C88.4971 26.7907 87.4331 27.0333 86.1825 27.164C86.0331 28.8813 85.5385 30.5987 84.6985 32.316L83.5505 31.98C84.0731 30.6547 84.3531 29.0773 84.3905 27.248C83.6811 27.248 83.1025 27.0427 82.6545 26.632C82.2251 26.2213 82.0105 25.7173 82.0105 25.12C82.0105 24.504 82.2158 23.9907 82.6265 23.58C83.0558 23.1507 83.5691 22.936 84.1665 22.936C84.7825 22.936 85.2958 23.1507 85.7065 23.58C86.1171 24.0093 86.3225 24.56 86.3225 25.232H86.8545C88.3291 25.232 89.8971 24.8213 91.5585 24C92.0998 23.72 92.4918 23.58 92.7345 23.58ZM96.7422 18.428C97.2835 17.868 97.9649 17.42 98.7862 17.084C99.6262 16.748 100.448 16.58 101.25 16.58C102.072 16.58 102.744 16.748 103.266 17.084C103.789 17.4013 104.05 17.8027 104.05 18.288V34.892C104.05 35.396 104.172 35.7973 104.414 36.096C104.657 36.376 105.03 36.516 105.534 36.516C106.038 36.516 106.617 36.2453 107.27 35.704L107.774 36.376C106.281 37.7387 104.788 38.42 103.294 38.42C100.998 38.42 99.8502 37.048 99.8502 34.304V17.924C98.8235 18.1853 98.0395 18.6427 97.4982 19.296L96.7422 18.428ZM111.527 20.836C111.098 20.388 110.883 19.856 110.883 19.24C110.883 18.624 111.098 18.1013 111.527 17.672C111.975 17.224 112.507 17 113.123 17C113.739 17 114.262 17.224 114.691 17.672C115.139 18.1013 115.363 18.624 115.363 19.24C115.363 19.856 115.139 20.388 114.691 20.836C114.262 21.2653 113.739 21.48 113.123 21.48C112.507 21.48 111.975 21.2653 111.527 20.836ZM112.591 23.58C114.346 23.58 115.223 24.336 115.223 25.848V34.892C115.223 35.396 115.344 35.7973 115.587 36.096C115.83 36.376 116.203 36.516 116.707 36.516C117.211 36.516 117.79 36.2453 118.443 35.704L118.947 36.376C117.454 37.7387 115.96 38.42 114.467 38.42C112.171 38.42 111.023 37.048 111.023 34.304V24.924C109.996 25.1853 109.212 25.6427 108.671 26.296L107.915 25.428C108.456 24.868 109.138 24.42 109.959 24.084C110.799 23.748 111.676 23.58 112.591 23.58Z" fill="black"/>
<path d="M119 14C122.314 14 125 11.3137 125 8C125 4.68629 122.314 2 119 2C115.686 2 113 4.68629 113 8C113 11.3137 115.686 14 119 14Z" stroke="#101828" stroke-linecap="round" stroke-linejoin="round"/>
<path d="M117.5 8.5H119.5C119.898 8.5 120.279 8.34196 120.561 8.06066C120.842 7.77936 121 7.39782 121 7C121 6.60218 120.842 6.22064 120.561 5.93934C120.279 5.65804 119.898 5.5 119.5 5.5H117.5V10.5" stroke="#101828" stroke-linecap="round" stroke-linejoin="round"/>
<path d="M119.6 8.49377L121 10.5" stroke="#101828" stroke-linecap="round" stroke-linejoin="round"/>
</svg>
